<!-- Generated by IcoMoon.io -->
<svg version="1.1" xmlns="http://www.w3.org/2000/svg" width="32" height="32" viewBox="0 0 32 32">
<title>caret-down</title>
<path d="M30.57 8.935c-0.226-0.547-0.755-0.925-1.372-0.925-0.002 0-0.003 0-0.005 0h-26.644c-0.001 0-0.001 0-0.002 0-0.818 0-1.48 0.663-1.48 1.48 0 0.415 0.17 0.789 0.445 1.058l13.33 13.004c0.266 0.26 0.631 0.419 1.032 0.419s0.766-0.16 1.033-0.42l-0 0 13.322-13.018c0.274-0.269 0.443-0.643 0.443-1.056 0-0.195-0.038-0.382-0.106-0.552l0.003 0.010z"></path>
</svg>
