<?xml version="1.0" encoding="UTF-8"?>
<svg width="55px" height="53px" viewBox="0 0 55 53" version="1.1" xmlns="http://www.w3.org/2000/svg" xmlns:xlink="http://www.w3.org/1999/xlink">
    <!-- Generator: sketchtool 51.2 (57519) - http://www.bohemiancoding.com/sketch -->
    <title>A1B0CE42-CD1D-4794-A4DB-253478B7D04E</title>
    <desc>Created with sketchtool.</desc>
    <defs></defs>
    <g id="1440px" stroke="none" stroke-width="1" fill="none" fill-rule="evenodd">
        <g id="noon-Help-center---Home" transform="translate(-236.000000, -1728.000000)" fill-rule="nonzero">
            <g id="Group-7-Copy-9" transform="translate(200.000000, 1692.000000)">
                <g id="Group-4-Copy-5">
                    <g id="Group-18" transform="translate(32.000000, 28.000000)">
                        <g id="star-(1)" transform="translate(4.000000, 8.000000)">
                            <path d="M48.9618722,16.1728909 L34.710131,14.8497943 L29.0489052,1.69104171 C28.6524937,0.769652763 27.3474259,0.769652763 26.9511209,1.69104171 L21.2898951,14.8496876 L7.03815397,16.1728909 C6.04019855,16.2654778 5.63696701,17.5079342 6.38982927,18.1700159 L17.1428122,27.6256126 L13.9959226,41.6020739 C13.7755519,42.580743 14.8314772,43.3485316 15.6931395,42.8364236 L28.0000131,35.5216322 L40.3068867,42.8364236 C41.1686556,43.3486382 42.2243677,42.580743 42.0041035,41.6020739 L38.8571073,27.6256126 L49.6101969,18.1700159 C50.3630591,17.5079342 49.959721,16.2654778 48.9618722,16.1728909 Z" id="Shape" fill="#EAECF0"></path>
                            <g id="Group" fill="#404553">
                                <path d="M12.8130664,0.853493902 C13.5454687,1.87363618 15.6126953,6.25475407 16.7945508,8.80801829 C16.9803906,9.20939634 16.4781934,9.5719939 16.1575391,9.26789024 C14.1179199,7.33403659 10.6304687,3.97823171 9.89806641,2.95798171 C9.31852539,2.15080894 9.50125,1.02531301 10.3062695,0.444144309 C11.1111816,-0.13702439 12.2335254,0.0463211382 12.8130664,0.853493902 Z" id="Shape"></path>
                                <path d="M42.1869336,0.853493902 C41.4545313,1.87363618 39.3873047,6.25475407 38.2054492,8.80801829 C38.0196094,9.20939634 38.5218066,9.5719939 38.8424609,9.26789024 C40.8820801,7.33403659 44.3694238,3.97812398 45.1019336,2.95798171 C45.6814746,2.15080894 45.49875,1.02531301 44.6937305,0.444144309 C43.8888184,-0.13702439 42.7664746,0.0463211382 42.1869336,0.853493902 Z" id="Shape"></path>
                                <path d="M53.760459,30.7689776 C52.5687207,30.3792337 47.7782422,29.7353699 44.9935449,29.3820366 C44.5558008,29.3264512 44.3639453,29.9164533 44.750127,30.1303923 C47.2071875,31.4914797 51.4549707,33.8036585 52.646709,34.1934024 C53.5896582,34.501815 54.6033984,33.9852805 54.9109473,33.0395752 C55.2184961,32.0938699 54.7034082,31.0773902 53.760459,30.7689776 Z" id="Shape"></path>
                                <path d="M1.23954102,30.7689776 C2.4312793,30.3792337 7.22175781,29.7353699 10.0064551,29.3820366 C10.4441992,29.3264512 10.6360547,29.9164533 10.249873,30.1303923 C7.7928125,31.4914797 3.5450293,33.8036585 2.35329102,34.1934024 C1.4103418,34.501815 0.396601562,33.9852805 0.0890527344,33.0395752 C-0.218496094,32.0938699 0.296591797,31.0773902 1.23954102,30.7689776 Z" id="Shape"></path>
                                <path d="M25.7591211,51.0943699 C25.7591211,49.8373435 26.6340723,45.0705752 27.1625879,42.306065 C27.245625,41.8715081 27.8644824,41.8715081 27.9475195,42.306065 C28.4760352,45.0705752 29.3509863,49.8373435 29.3509863,51.0943699 C29.3509863,52.0889817 28.5469336,52.8952927 27.5551074,52.8952927 C26.5631738,52.8954004 25.7591211,52.0889817 25.7591211,51.0943699 Z" id="Shape"></path>
                            </g>
                            <path d="M31,6.47612582 L28.9501363,1.69104242 C28.5554217,0.769652528 27.2559403,0.769652528 26.8613317,1.69104242 L21.2243393,14.8497018 L7.03371006,16.1729064 C6.04002647,16.2654934 5.63852101,17.5079511 6.38816057,18.1700334 L17.0951145,27.6256398 L13.9616954,41.6021154 C13.742268,42.5807854 14.7936733,43.3485748 15.6516472,42.8364663 L17.2826039,41.8629163 C19.9563715,24.4633887 27.4731395,11.6908641 31,6.47612582 Z" id="Shape" fill="#919AB4"></path>
                        </g>
                    </g>
                </g>
            </g>
        </g>
    </g>
</svg>