<svg xmlns="http://www.w3.org/2000/svg" width="46" height="34" viewBox="0 0 46 34">
    <g fill="none" fill-rule="nonzero">
        <g fill="#404553">
            <path d="M15.35 28.461c0-2.665-2.14-4.826-4.777-4.826-2.638 0-4.778 2.161-4.778 4.826 0 2.665 2.14 4.827 4.778 4.827 2.638 0 4.777-2.162 4.777-4.827M40.192 28.461c0-2.665-2.139-4.826-4.777-4.826-2.638 0-4.777 2.161-4.777 4.826 0 2.665 2.139 4.827 4.777 4.827 2.638 0 4.777-2.162 4.777-4.827"/>
        </g>
        <path fill="#404553" d="M25.86.468H9.425C8.54 4.873 4.685 8.19.063 8.19v7.722h17.201c5.275 0 9.552-4.32 9.552-9.65V1.433a.96.96 0 0 0-.956-.965"/>
        <path fill="#EAECF0" d="M45.325 18.565l-4.177-1.688-2.505-10.12a1.914 1.914 0 0 0-1.853-1.463h-9.974v.968c0 5.33-4.276 9.65-9.553 9.65H.063v11.584a.96.96 0 0 0 .956.965h4.777c0-2.665 2.138-4.827 4.777-4.827 2.638 0 4.778 2.162 4.778 4.827H30.638c0-2.665 2.139-4.827 4.778-4.827 2.638 0 4.777 2.162 4.777 4.827h4.777a.96.96 0 0 0 .956-.965V19.46a.966.966 0 0 0-.601-.896"/>
        <g fill="#EEF0F6">
            <path d="M10.573 30.392a1.922 1.922 0 0 1-1.911-1.93c0-1.067.856-1.931 1.91-1.931 1.056 0 1.912.864 1.912 1.93 0 1.066-.856 1.93-1.911 1.93M35.415 30.392a1.922 1.922 0 0 1-1.91-1.93c0-1.067.855-1.931 1.91-1.931s1.911.864 1.911 1.93c0 1.066-.856 1.93-1.91 1.93"/>
        </g>
        <path fill="#404553" d="M32.549 21.704h-1.911a.96.96 0 0 1-.956-.965.96.96 0 0 1 .956-.965h1.91a.96.96 0 0 1 .956.965.96.96 0 0 1-.955.965"/>
        <g fill="#EEF0F6">
            <path d="M20.456 6.26h-8.697c-.347 0-.627-.433-.627-.966 0-.533.28-.965.627-.965h8.697c.346 0 .627.432.627.965 0 .533-.281.966-.627.966M18.217 12.051H4.84a.96.96 0 0 1-.956-.965.96.96 0 0 1 .956-.965h13.377a.96.96 0 0 1 .955.965.96.96 0 0 1-.955.965"/>
        </g>
        <path fill="#404553" d="M31.593 14.687V10.12a.96.96 0 0 0-.955-.966.96.96 0 0 0-.956.966v4.566c0 1.74 1.402 3.156 3.125 3.156h10.73l-2.389-.965-.239-.966h-8.102c-.67 0-1.214-.55-1.214-1.225"/>
    </g>
</svg>
