<svg xmlns="http://www.w3.org/2000/svg" width="34" height="42" viewBox="0 0 34 42">
    <g fill="none" fill-rule="nonzero">
        <path fill="#404553" d="M23.149 1.448h-2.894v2.173h-6.51V1.448H0V42h34V1.448z"/>
        <path fill="#404553" d="M13.745 0h6.511v3.621h-6.511z"/>
        <path fill="#EAECF0" d="M25.32 3.62v2.173H8.68V3.621H2.17v36.207h29.66V3.62z"/>
        <path fill="#404553" d="M20.255 1.448v2.173h-6.51V1.448H8.68v4.345h16.638V1.448z"/>
        <path fill="#919AB4" d="M16.012 14.573H6.608c-.4 0-.723-.617-.723-1.38 0-.763.323-1.38.723-1.38h9.404c.4 0 .724.617.724 1.38 0 .763-.324 1.38-.724 1.38zM16.012 34.26H6.608c-.4 0-.723-.616-.723-1.38 0-.763.323-1.38.723-1.38h9.404c.4 0 .724.617.724 1.38 0 .764-.324 1.38-.724 1.38zM27.587 27.698H6.608c-.4 0-.723-.617-.723-1.38 0-.763.323-1.38.723-1.38h20.979c.4 0 .723.617.723 1.38 0 .763-.323 1.38-.723 1.38zM23.274 21.136H6.608c-.4 0-.723-.617-.723-1.38 0-.764.323-1.381.723-1.381h16.666c.4 0 .724.617.724 1.38 0 .764-.324 1.38-.724 1.38z"/>
    </g>
</svg>
