<svg xmlns="http://www.w3.org/2000/svg" width="42" height="42" viewBox="0 0 42 42">
    <g fill="none" fill-rule="nonzero">
        <path fill="#FFF782" d="M21.359.003C9.763-.195.2 9.044.003 20.641c-.112 6.574 2.818 12.483 7.484 16.414a5.58 5.58 0 0 1 .996-.708l6.266-3.418a2.56 2.56 0 0 0 1.334-2.247v-2.567s-1.84-2.2-2.54-5.257a2.108 2.108 0 0 1-.972-1.768v-2.81c0-.618.275-1.17.702-1.557v-4.062s-.835-6.321 7.726-6.321 7.727 6.321 7.727 6.321v4.062c.428.387.702.94.702 1.557v2.81c0 .945-.634 1.74-1.495 2.005a15.439 15.439 0 0 1-2.086 4.203c-.23.326-.446.602-.634.817v2.632c0 .97.547 1.856 1.414 2.289l6.71 3.354c.402.201.766.456 1.101.739 4.525-3.774 7.449-9.416 7.557-15.77C42.195 9.763 32.955.2 21.36.003z"/>
        <circle cx="21" cy="21" r="21" fill="#EAECF0"/>
        <path stroke="#404553" stroke-width="1.641" d="M17.122 28.27l-4.575 2.453c-.269.144-.51.32-.735.514a15.42 15.42 0 0 0 9.873 3.544c3.734 0 7.155-1.314 9.815-3.494a4.064 4.064 0 0 0-.807-.531l-4.898-2.408a1.833 1.833 0 0 1-1.033-1.643v-1.889c.138-.154.295-.352.463-.586a11.007 11.007 0 0 0 1.523-3.017c.628-.19 1.091-.76 1.091-1.439v-2.016c0-.444-.2-.84-.512-1.118v-2.915s.609-4.537-5.642-4.537c-6.25 0-5.64 4.537-5.64 4.537v2.915a1.493 1.493 0 0 0-.513 1.118v2.016c0 .532.284 1 .709 1.27.513 2.193 1.855 3.772 1.855 3.772v1.843c0 .67-.374 1.29-.974 1.611z"/>
    </g>
</svg>
