<svg xmlns="http://www.w3.org/2000/svg" width="42" height="42" viewBox="0 0 42 42">
    <g fill="none" fill-rule="nonzero">
        <path fill="#EAECF0" d="M33.812 0h-10.25L4.548 18.952l18.46 18.5L42 18.522V8.17z"/>
        <path fill="#404553" d="M4.571 18.942L0 23.501 18.46 42l4.591-4.579z"/>
        <path fill="#919AB4" d="M32.678 7a2.283 2.283 0 1 1 0 4.565 2.283 2.283 0 0 1 0-4.565zm0-3.111a5.4 5.4 0 0 0-5.394 5.394 5.4 5.4 0 0 0 5.394 5.394 5.4 5.4 0 0 0 5.394-5.394 5.4 5.4 0 0 0-5.394-5.394z"/>
    </g>
</svg>
