<svg xmlns="http://www.w3.org/2000/svg" width="46" height="39" viewBox="0 0 46 39">
    <g fill="none" fill-rule="nonzero">
        <path fill="#EAECF0" d="M29.445 30.31c.347-1.242.716-2.385.75-2.542.513-2.316-.918-3.79-.918-3.79l1.627-2.397s1.164 1.598 4.066 1.598c2.903 0 3.254-1.598 3.254-1.598s.35 1.598 3.253 1.598c.295 0 .56-.026.818-.056V2.403c0-1.323-1.093-2.396-2.44-2.396H2.44C1.093.007 0 1.08 0 2.404v25.57c0 1.323 1.093 2.397 2.44 2.397h26.992l.013-.06"/>
        <path fill="#404553" d="M36.87 18.219s.351 1.598 3.254 1.598 4.067-1.598 4.067-1.598l1.627 2.397s-1.432 1.474-.92 3.79c.036.156.405 1.3.751 2.542.648 2.326-.522 6.56-3.5 8.34-.018.011-.039.02-.057.029l-.69.338s-4.531 1.878-4.531 3.339c0-1.46-4.531-3.34-4.531-3.34l-.69-.337c-.019-.01-.04-.018-.057-.029-2.979-1.78-4.148-6.014-3.5-8.34.346-1.242.715-2.386.75-2.542.512-2.316-.92-3.79-.92-3.79l1.628-2.397s1.163 1.598 4.066 1.598c2.903 0 3.254-1.598 3.254-1.598"/>
        <g fill="#404553">
            <path d="M0 10.394h42.295V4.002H0zM5.412 17.431h13.53v-1.998H5.411z"/>
        </g>
        <path fill="#EAECF0" d="M36.875 23.013l1.604 3.192 3.277.004-2.286 2.993.659 3.4-3.254-1.55-3.253 1.55.659-3.4-2.286-2.993 3.277-.004z"/>
    </g>
</svg>
