<?xml version="1.0" encoding="UTF-8"?>
<svg width="60px" height="60px" viewBox="0 0 60 60" version="1.1" xmlns="http://www.w3.org/2000/svg" xmlns:xlink="http://www.w3.org/1999/xlink">
    <!-- Generator: sketchtool 51.2 (57519) - http://www.bohemiancoding.com/sketch -->
    <title>EF213920-FC03-4BEE-95B7-315EF243B0F6</title>
    <desc>Created with sketchtool.</desc>
    <defs></defs>
    <g id="1440px" stroke="none" stroke-width="1" fill="none" fill-rule="evenodd">
        <g id="noon-Help-center---Home" transform="translate(-777.000000, -1723.000000)" fill-rule="nonzero">
            <g id="Group-7-Copy-10" transform="translate(740.000000, 1692.000000)">
                <g id="Group-4-Copy-5">
                    <g id="percentage" transform="translate(37.000000, 31.000000)">
                        <path d="M58.4287508,33.3133438 L57.5127914,32.0716083 C56.5225649,30.719223 56.4978093,28.8873558 57.4756579,27.5103818 L58.3668617,26.2563519 C59.7284231,24.3384237 59.0971537,21.6705366 57.0053003,20.5517452 L55.643739,19.8263749 C54.1583993,19.0395326 53.3414625,17.3920815 53.6261526,15.7323361 L53.886087,14.2201235 C54.2821776,11.9087742 52.5369035,9.76954673 50.1727379,9.67119144 L48.6255091,9.60971939 C46.9421241,9.53595292 45.4815401,8.40486711 45.0111825,6.79429927 L44.5779585,5.31896995 C43.9219334,3.05679833 41.4216117,1.88882929 39.2431135,2.82320452 L37.819663,3.42563066 C36.2724342,4.08952885 34.4652709,3.6961077 33.3388883,2.44207778 L32.3115284,1.29869756 C30.7395439,-0.447108798 27.9792877,-0.434814387 26.4196811,1.34787521 L25.404699,2.50354984 C24.2906942,3.76987417 22.4959088,4.18788414 20.9363021,3.54857477 L19.5004738,2.95844304 C17.3095978,2.06095104 14.8340317,3.27809773 14.2027623,5.54026935 L13.7942939,7.02789308 C13.348692,8.65075533 11.9128637,9.80642996 10.2294787,9.89249084 L8.68224989,9.97855172 C6.31808426,10.1137902 4.60994364,12.2776066 5.04316771,14.5889558 L5.32785781,16.1011684 C5.63730358,17.7486195 4.84512242,19.4083649 3.37216059,20.2197961 L2.02297706,20.9697551 C-0.0441206416,22.1131354 -0.638256508,24.7933169 0.760438344,26.6866562 L1.6763978,27.9283917 C2.66662425,29.280777 2.69137991,31.1126442 1.7135313,32.4896182 L0.822327496,33.7436481 C-0.539233863,35.6615763 0.0920354944,38.3294634 2.18388886,39.4482548 L3.54545022,40.1736251 C5.03078988,40.9604674 5.8477267,42.6079185 5.56303659,44.2676639 L5.30310215,45.7798765 C4.90701158,48.0912258 6.65228568,50.2304533 9.01645132,50.3288086 L10.5636801,50.3902806 C12.2470651,50.4640471 13.7076491,51.5951329 14.1780067,53.2057007 L14.6112307,54.68103 C15.2672557,56.9432017 17.7675775,58.1111707 19.9460757,57.1767955 L21.3695262,56.5743693 C22.916755,55.9104711 24.7239183,56.3038923 25.8503009,57.5579222 L26.8776608,58.7013024 C28.4620231,60.4471088 31.2222793,60.4348144 32.7695081,58.6521248 L33.7844902,57.4964502 C34.898495,56.2301258 36.6932804,55.8121159 38.2528871,56.4514252 L39.6887154,57.041557 C41.8795914,57.939049 44.3551575,56.7219023 44.9864269,54.4597306 L45.3948953,52.9721069 C45.8404972,51.3492447 47.2763255,50.19357 48.9597105,50.1075092 L50.5069393,50.0214483 C52.8711049,49.8862098 54.5792455,47.7223934 54.1460215,45.4110442 L53.8613314,43.8988316 C53.5518856,42.2513805 54.3440668,40.5916351 55.8170286,39.7802039 L57.1662121,39.0302449 C59.2333098,37.8991591 59.8274457,35.2189775 58.4287508,33.3133438 Z" id="Shape" fill="#EAECF0"></path>
                        <circle id="Oval" fill="#404553" cx="23.4324325" cy="22.4324325" r="3.4324325"></circle>
                        <circle id="Oval" fill="#404553" cx="36.4324325" cy="39.4324325" r="3.4324325"></circle>
                        <path d="M21.1983021,42.4216746 C20.5658906,43.1328201 19.4215269,43.2304284 18.6535986,42.6447791 C17.8856704,42.0591298 17.7802685,40.9993834 18.41268,40.2882378 L37.851805,18.6052698 C38.4842165,17.8941242 39.6285802,17.796516 40.3965085,18.3821653 C41.1644367,18.9678146 41.2698386,20.027561 40.6374271,20.7387065 L21.1983021,42.4216746 Z" id="Path" fill="#404553"></path>
                    </g>
                </g>
            </g>
        </g>
    </g>
</svg>