<svg xmlns="http://www.w3.org/2000/svg" width="40" height="46" viewBox="0 0 40 46">
    <g fill="none" fill-rule="nonzero">
        <path fill="#EAECF0" d="M33.07 10.147L22.78 0H0v42.036h33.07z"/>
        <path fill="#919AB4" d="M22.48 0v10.147h10.288z"/>
        <g fill="#404553">
            <path d="M38.994 43.23l-7.54-7.837c2.205-2.41 3.562-5.597 3.562-9.103 0-7.472-6.116-13.552-13.636-13.552S7.744 18.818 7.744 26.29c0 7.473 6.117 13.553 13.636 13.553 3.084 0 5.922-1.035 8.208-2.757l7.58 7.878c.247.259.58.388.913.388.315 0 .628-.115.873-.348a1.248 1.248 0 0 0 .04-1.773zM10.272 26.29c0-6.088 4.984-11.041 11.11-11.041 6.125 0 11.109 4.953 11.109 11.041 0 6.089-4.984 11.042-11.11 11.042-6.125 0-11.11-4.953-11.11-11.042z"/>
        </g>
    </g>
</svg>
