<svg width="16" height="16" viewBox="0 0 16 16" fill="none" xmlns="http://www.w3.org/2000/svg">
<path d="M12.6667 7H3.33333C2.59695 7 2 7.59695 2 8.33333V13C2 13.7364 2.59695 14.3333 3.33333 14.3333H12.6667C13.403 14.3333 14 13.7364 14 13V8.33333C14 7.59695 13.403 7 12.6667 7Z" fill="#404553" stroke="#404553" stroke-linecap="round" stroke-linejoin="round"/>
<path d="M4.66656 7V4.33333C4.66656 3.44928 5.01775 2.60143 5.64288 1.97631C6.268 1.35119 7.11584 1 7.9999 1C8.88395 1 9.7318 1.35119 10.3569 1.97631C10.982 2.60143 11.3332 3.44928 11.3332 4.33333V7" stroke="#404553" stroke-linecap="round" stroke-linejoin="round"/>
</svg>
