<svg width="24" height="25" viewBox="0 0 24 25" fill="none" xmlns="http://www.w3.org/2000/svg">
<path fill-rule="evenodd" clip-rule="evenodd" d="M6.59302 16.7479C6.59302 14.4828 8.4293 12.6465 10.6945 12.6465C11.4499 12.6465 10.9958 12.6465 12.0641 12.6465C13.1323 12.6465 12.6602 12.6465 13.4156 12.6465C15.6907 12.6465 17.5351 14.4909 17.5351 16.766V17.4337H12.0641H6.59302V16.7479Z" fill="#FEEE00" stroke="#404553" stroke-width="1.5" stroke-linecap="round" stroke-linejoin="round"/>
<path fill-rule="evenodd" clip-rule="evenodd" d="M12 10.5144C13.5108 10.5144 14.7355 9.28965 14.7355 7.77886C14.7355 6.26807 13.5108 5.04333 12 5.04333C10.4892 5.04333 9.2645 6.26807 9.2645 7.77886C9.2645 9.28965 10.4892 10.5144 12 10.5144Z" fill="#FEEE00" stroke="#404553" stroke-width="1.5" stroke-linecap="round" stroke-linejoin="round"/>
<path d="M22.25 12.0433C22.25 17.7043 17.6609 22.2933 12 22.2933C6.33908 22.2933 1.75 17.7043 1.75 12.0433C1.75 9.49248 2.68083 7.16093 4.22232 5.36694C6.10327 3.1779 8.88953 1.79333 12 1.79333C17.6609 1.79333 22.25 6.38242 22.25 12.0433Z" stroke="#404553" stroke-width="1.5" stroke-linecap="round" stroke-linejoin="round"/>
</svg>
